<?xml version="1.0" standalone="no"?>
<!DOCTYPE svg PUBLIC "-//W3C//DTD SVG 20010904//EN"
 "http://www.w3.org/TR/2001/REC-SVG-20010904/DTD/svg10.dtd">
<svg version="1.0" xmlns="http://www.w3.org/2000/svg"
 width="330.000000pt" height="98.000000pt" viewBox="0 0 330.000000 98.000000"
 preserveAspectRatio="xMidYMid meet">
<metadata>
Created by potrace 1.12, written by Peter Selinger 2001-2015
</metadata>
<g transform="translate(-5.000000,103.000000) scale(0.100000,-0.100000)"
fill="#000000" stroke="none">
<path d="M84 996 l-34 -34 0 -422 0 -422 34 -34 34 -34 482 0 482 0 34 34 34
34 0 422 0 422 -34 34 -34 34 -482 0 -482 0 -34 -34z m385 -324 l106 -102
-135 -129 -135 -130 -28 27 -27 26 102 103 103 103 -103 103 -102 102 27 28
27 27 29 -28 c16 -15 77 -73 136 -130z m481 -377 l0 -45 -180 0 -180 0 0 45 0
45 180 0 180 0 0 -45z"/>
<path d="M1350 825 c0 -8 29 -74 65 -145 58 -117 65 -136 65 -190 l0 -60 40 0
40 0 0 65 c0 60 5 75 65 195 36 71 65 134 65 140 0 5 -18 10 -39 10 l-39 0
-44 -105 c-23 -58 -46 -105 -49 -105 -4 0 -26 47 -50 105 l-43 105 -38 0 c-27
0 -38 -4 -38 -15z"/>
<path d="M1781 658 c-34 -101 -61 -193 -61 -206 0 -21 4 -23 37 -20 33 3 37 7
47 43 l12 40 74 0 75 0 15 -42 c13 -40 17 -43 52 -43 24 0 38 5 38 13 0 7 -28
98 -63 202 l-64 190 -50 3 -51 3 -61 -183z m169 -75 c0 -2 -25 -3 -55 -3 -37
0 -55 4 -55 13 0 12 34 127 47 157 3 9 17 -22 34 -75 16 -49 29 -91 29 -92z"/>
<path d="M2130 635 l0 -205 40 0 40 0 0 205 0 205 -40 0 -40 0 0 -205z"/>
<path d="M2344 830 c-36 -14 -54 -50 -54 -105 1 -76 20 -93 135 -120 72 -16
85 -25 85 -62 0 -43 -24 -53 -126 -53 l-94 0 0 -30 0 -30 116 0 c114 0 116 0
145 29 25 25 29 37 29 84 0 79 -20 101 -117 122 -88 19 -103 28 -103 60 0 37
27 50 119 55 85 5 86 5 89 33 l3 27 -103 -1 c-57 0 -113 -4 -124 -9z"/>
<path d="M2692 653 c-34 -104 -62 -197 -62 -206 0 -15 7 -18 37 -15 33 3 37 7
47 43 l12 40 75 3 76 3 13 -46 c12 -43 14 -45 51 -45 25 0 39 5 39 13 0 7 -28
98 -63 202 l-64 190 -49 3 -49 3 -63 -188z m168 -70 c0 -2 -25 -3 -55 -3 -30
0 -55 4 -55 9 0 9 36 133 47 161 3 8 18 -24 34 -75 16 -49 29 -91 29 -92z"/>
<path d="M3040 636 l0 -206 41 0 42 0 -6 141 c-3 77 -2 138 1 134 3 -3 38 -65
78 -138 l71 -132 42 -3 41 -3 0 205 0 206 -42 0 -41 0 7 -142 c3 -78 3 -139
-1 -135 -3 4 -39 67 -78 140 l-71 132 -42 3 -42 3 0 -205z"/>
</g>
</svg>
