<?xml version="1.0" standalone="no"?>
<!DOCTYPE svg PUBLIC "-//W3C//DTD SVG 20010904//EN"
 "http://www.w3.org/TR/2001/REC-SVG-20010904/DTD/svg10.dtd">
<svg version="1.0" xmlns="http://www.w3.org/2000/svg"
 width="363.622488pt" height="91.756633pt" viewBox="0 0 363.622488 91.756633"
 preserveAspectRatio="xMidYMid meet">
<metadata>
Created by potrace 1.12, written by Peter Selinger 2001-2015
</metadata>
<g transform="translate(-18.377512,108.904307) scale(0.100000,-0.100000)"
fill="#000000" stroke="none">
<path d="M940 998 c-85 -50 -193 -110 -240 -134 -74 -39 -86 -42 -99 -29 -12
12 -12 21 -3 51 10 33 9 35 -6 22 -9 -8 -90 -77 -180 -152 -90 -76 -174 -154
-187 -174 -54 -82 -55 -191 -4 -281 50 -88 147 -137 253 -129 73 6 128 32 177
85 37 39 339 438 339 448 0 3 -14 5 -30 5 -19 0 -33 6 -37 16 -7 19 52 144
131 275 30 49 51 89 48 88 -4 0 -77 -42 -162 -91z m-373 -404 c120 -95 104
-267 -30 -330 -29 -13 -63 -24 -77 -24 -75 0 -160 54 -186 117 -36 86 -3 195
75 245 41 26 53 29 113 26 56 -3 73 -8 105 -34z"/>
<path d="M1457 815 c-105 -39 -155 -131 -127 -233 25 -95 115 -152 237 -152
52 0 53 1 53 29 0 28 -1 28 -71 33 -80 6 -114 24 -142 79 -12 23 -16 47 -13
73 9 80 72 126 169 126 57 0 57 0 57 30 l0 30 -62 -1 c-35 0 -80 -7 -101 -14z"/>
<path d="M1822 804 c-85 -42 -124 -130 -102 -226 15 -61 67 -117 123 -135 37
-11 37 -11 37 17 0 22 -8 33 -35 49 -88 52 -85 199 5 246 23 12 30 22 30 45 0
17 -1 30 -3 30 -2 0 -27 -12 -55 -26z"/>
<path d="M1940 800 c0 -22 8 -33 31 -47 36 -21 69 -79 69 -124 0 -46 -29 -99
-67 -121 -25 -15 -33 -27 -33 -49 0 -27 1 -28 27 -18 90 34 138 103 137 196
-2 86 -50 153 -131 181 -32 11 -33 10 -33 -18z"/>
<path d="M2150 630 l0 -200 35 0 35 0 0 142 0 143 56 -85 c31 -47 60 -89 65
-94 7 -7 97 123 178 257 l23 37 -35 0 c-33 0 -38 -5 -97 -96 -34 -53 -65 -93
-69 -88 -4 5 -33 48 -64 97 -54 82 -58 87 -92 87 l-35 0 0 -200z"/>
<path d="M2640 800 l0 -30 145 0 145 0 0 30 0 30 -145 0 -145 0 0 -30z"/>
<path d="M3077 823 c-4 -3 -7 -17 -7 -30 l0 -23 150 0 150 0 0 30 0 30 -143 0
c-79 0 -147 -3 -150 -7z"/>
<path d="M3500 795 l0 -35 160 0 160 0 0 35 0 35 -160 0 -160 0 0 -35z"/>
<path d="M2508 666 c-26 -39 -28 -52 -28 -140 l0 -96 30 0 30 0 0 140 c0 77
-1 140 -2 140 -2 0 -15 -20 -30 -44z"/>
<path d="M3630 565 l0 -135 30 0 30 0 0 135 0 135 -30 0 -30 0 0 -135z"/>
<path d="M2640 630 l0 -30 130 0 130 0 0 30 0 30 -130 0 -130 0 0 -30z"/>
<path d="M3070 630 l0 -30 135 0 135 0 0 30 0 30 -135 0 -135 0 0 -30z"/>
<path d="M2640 460 l0 -30 145 0 145 0 0 30 0 30 -145 0 -145 0 0 -30z"/>
<path d="M3072 463 l3 -28 148 -3 147 -3 0 31 0 30 -151 0 -150 0 3 -27z"/>
</g>
</svg>
