<?xml version="1.0" encoding="utf-8"?>
<!DOCTYPE svg PUBLIC "-//W3C//DTD SVG 20010904//EN" "http://www.w3.org/TR/2001/REC-SVG-20010904/DTD/svg10.dtd">
<svg version="1.0" xmlns="http://www.w3.org/2000/svg" width="518px" height="98px" viewBox="0 0 518 98" preserveAspectRatio="xMidYMid meet">
 <g fill="#ffffff">
  <path d="M0 49 l0 -49 259 0 259 0 0 49 0 49 -259 0 -259 0 0 -49z m148 28 l0 -4.9 -15.7 -0.3 -15.8 -0.3 -0.3 -10.7 -0.3 -10.8 12.1 0 12 0 0 -5 0 -4.9 -11.7 -0.3 -11.8 -0.3 -0.3 -10.8 -0.3 -10.7 16.1 0 16 0 0 -5 0 -5 -21 0 -21 0 0 36.3 c0 20 0.3 36.7 0.7 37 0.3 0.4 9.8 0.7 21 0.7 l20.3 0 0 -5z m55.8 -0.2 l0.3 -4.8 -16 0 -16.1 0 0 -32 0 -32 -5 0 -5 0 0 37 0 37 20.8 -0.2 20.7 -0.3 0.3 -4.7z m62 0.6 c3.9 -1.9 7.2 -3.9 7.2 -4.3 0 -0.4 -1.1 -1.8 -2.5 -3.1 -2.5 -2.3 -2.5 -2.4 -6.3 -0.6 -4.9 2.4 -15.6 3.2 -22.3 1.6 -4.2 -1 -6.4 -2.4 -10.5 -6.5 -6.1 -6 -7.4 -9.7 -7.4 -20.5 0 -12.3 6 -21.8 15.7 -25.1 6.1 -2.1 19.1 -1.7 24.1 0.8 l4.1 2 2.7 -2.8 2.6 -2.7 -3.8 -2.6 c-5.8 -3.8 -12.1 -5.7 -19.3 -5.7 -12.6 -0.1 -26.7 9.8 -33 23.1 -3.7 7.9 -3.7 19.1 0.1 27.2 6.7 14.4 22.7 24.6 36.3 23.3 2.8 -0.3 8.2 -2.1 12.3 -4.1z m72.9 0.1 c8.3 -4.1 14.7 -10.6 19 -19.3 2.4 -4.8 2.8 -6.9 2.8 -13.7 0 -6.8 -0.5 -8.9 -3 -14 -7.2 -15 -24.6 -25.1 -38.4 -22.5 -11.9 2.2 -22.8 10.7 -28.3 21.8 -2.9 5.8 -3.3 7.6 -3.3 14.7 0 6.6 0.5 9 2.7 13.7 6.7 14.4 22.7 24.6 36.3 23.3 2.8 -0.3 8.2 -2.1 12.2 -4z m44.3 -12 l0 -16.5 3.3 0 c3.1 0 3.9 0.9 13.1 13.6 l9.8 13.5 9.6 -13.5 c9 -12.6 9.9 -13.5 13 -13.6 l3.2 0 0 16.5 0 16.5 5 0 5 0 0 -33.7 c-0.1 -26.8 -0.3 -33.5 -1.3 -32.2 -0.7 0.9 -7.9 10.9 -16.2 22.3 -20 27.5 -16.8 27.6 -38 -1.6 l-16 -22.2 -0.3 32.5 c-0.1 17.8 0 32.9 0.3 33.6 0.2 0.8 2.3 1.3 5 1.3 l4.5 0 0 -16.5z m118 11.5 l0 -5 -16 0 -16 0 0 -11 0 -11 12 0 12 0 0 -5 0 -5 -12 0 -12 0 0 -11 0 -11 16 0 16 0 0 -5 0 -5 -21 0 -21 0 0 37 0 37 21 0 21 0 0 -5z m-420.5 -40.2 l11.3 -28.8 -4.5 0 c-4 0 -4.5 0.3 -5.7 3.3 -0.7 1.7 -3.9 9.9 -7.1 18 l-5.7 14.8 -3.6 -0.3 -3.5 -0.3 -5.1 -13.2 c-2.8 -7.2 -5.4 -13.4 -5.7 -13.7 -0.3 -0.4 -3 5.7 -6 13.4 l-5.4 14 -3.5 0 -3.5 0 -7 -18 -7 -18 -4.2 0 c-2.4 0 -4.3 0.3 -4.3 0.6 0 1.7 25.4 65.2 26 64.9 0.3 -0.2 3 -6.9 5.9 -14.9 l5.4 -14.6 3.2 0 3.3 0 5.8 15.6 5.8 15.5 1.9 -4.8 c1 -2.6 7 -17.7 13.2 -33.5z"/>
  <path d="M315.5 71.1 c-4.6 -1.1 -8.7 -3.6 -12.2 -7.3 -4.8 -5 -6.3 -9.5 -6.3 -19.3 0 -9.8 1.5 -14.3 6.3 -19.3 5.8 -6.1 10 -7.6 20.7 -7.6 7.8 0 10.2 0.3 13.5 2.1 9.2 4.9 13.4 12.7 13.5 24.8 0 9.7 -2.7 16.5 -8.6 21.3 -6.4 5.3 -17.7 7.5 -26.9 5.3z"/>
 </g>
 <g fill="#2c3a47">
  <path d="M25 58.2 c-5.7 -14.7 -12.8 -32.7 -15.6 -39.9 l-5.2 -13.3 8.6 0 8.7 0 7 18 c3.8 9.9 7.2 18 7.5 18 0.3 0 3.6 -8.1 7.4 -18 3.9 -9.9 7.1 -18 7.2 -18 0.1 0 3.3 7.8 7 17.3 3.7 9.4 7 17.6 7.4 18 0.4 0.5 3.3 -5.8 6.5 -14 3.2 -8.1 6.4 -16.3 7.1 -18 l1.3 -3.3 8.7 0 c6.5 0 8.5 0.3 8.1 1.3 -0.3 0.6 -7.1 18.1 -15.2 38.7 -8.1 20.6 -15.1 38.2 -15.5 39 -0.7 1.2 -1 1 -1.8 -1 -8.8 -23.7 -13.5 -36 -13.8 -35.7 -0.2 0.1 -3.3 8.4 -6.9 18.2 -3.7 9.9 -6.9 18.3 -7.3 18.7 -0.4 0.4 -5.4 -11.3 -11.2 -26z"/>
  <path d="M103.7 84.3 c-0.4 -0.3 -0.7 -18.3 -0.7 -40 l0 -39.3 24 0 24 0 0 8 0 8 -16 0 -16.1 0 0.3 7.8 0.3 7.7 11.8 0.3 11.7 0.3 0 7.9 0 8 -12 0 -12.1 0 0.3 7.8 0.3 7.7 15.8 0.3 15.7 0.3 0 7.9 0 8 -23.3 0 c-12.9 0 -23.7 -0.3 -24 -0.7z"/>
  <path d="M159 45 l0 -40 8 0 8 0 0 32 0 32 16 0 16.1 0 -0.3 7.8 -0.3 7.7 -23.7 0.3 -23.8 0.2 0 -40z"/>
  <path d="M240 83.5 c-28.5 -8.1 -38.7 -43.9 -18.7 -66.1 5.4 -6 14.4 -11 22.1 -12.5 10.7 -2 24.7 1.6 33.1 8.5 l3 2.5 -5.6 5.6 -5.6 5.7 -3.9 -2.6 c-7 -4.6 -17.7 -5.1 -25.1 -1.2 -6.7 3.5 -12.2 12.8 -12.3 20.6 0 7.7 1.8 11.9 7.3 17.5 8.9 8.8 20 9.9 30.2 2.9 l3.8 -2.6 5.6 5.6 c5.4 5.5 5.5 5.5 3.6 7.6 -1 1.1 -5.1 3.7 -9.1 5.6 -8.7 4.3 -19.3 5.4 -28.4 2.9z"/>
  <path d="M313 83.5 c-19.1 -5.4 -32.2 -25.6 -29 -45 3.6 -22.3 24.9 -37.6 46.7 -33.6 3.6 0.7 8.8 2.3 11.6 3.7 6.8 3.5 14.7 11.6 18.3 18.9 2.7 5.5 2.9 6.9 2.9 17 0 10 -0.2 11.5 -2.8 16.7 -6.8 13.9 -19.6 22.6 -34.3 23.4 -5.2 0.3 -9.8 -0.1 -13.4 -1.1z m17.6 -16 c20.9 -6.2 23.4 -34.6 3.9 -44.8 -5.5 -2.9 -15.5 -2.8 -21 0 -8.7 4.6 -13.5 12.3 -13.5 21.8 0 6.7 2 11.8 6.3 16.3 6.9 7.2 15 9.5 24.3 6.7z"/>
  <path d="M370.5 83.7 c-0.3 -0.6 -0.4 -19 -0.3 -40.7 l0.3 -39.5 19 26.2 c10.5 14.4 19.3 26.1 19.7 26 0.3 -0.1 8.8 -11.4 18.8 -25.2 10 -13.7 18.6 -25.4 19.1 -26 0.5 -0.5 0.9 15.9 0.9 39.8 l0 40.7 -8 0 -8 0 -0.2 -16.4 -0.3 -16.4 -11 15.3 c-6 8.4 -11.3 15.1 -11.7 14.9 -0.3 -0.2 -5.5 -7.2 -11.5 -15.5 l-10.8 -15.1 -0.3 16.6 -0.2 16.6 -7.6 0 c-5 0 -7.6 -0.4 -7.9 -1.3z"/>
  <path d="M456 45 l0 -40 24 0 24 0 0 8 0 8 -16 0 -16 0 0 8 0 8 12 0 12 0 0 8 0 8 -12 0 -12 0 0 8 0 8 16 0 16 0 0 8 0 8 -24 0 -24 0 0 -40z"/>
 </g>
</svg>